<?xml version="1.0" encoding="utf-8"?>
<!-- Generator: Adobe Illustrator 18.0.0, SVG Export Plug-In . SVG Version: 6.00 Build 0)  -->
<!DOCTYPE svg PUBLIC "-//W3C//DTD SVG 1.1//EN" "http://www.w3.org/Graphics/SVG/1.1/DTD/svg11.dtd">
<svg version="1.1" id="Layer_1" xmlns="http://www.w3.org/2000/svg" xmlns:xlink="http://www.w3.org/1999/xlink" x="0px" y="0px"
	 viewBox="0 0 64 64" enable-background="new 0 0 64 64" xml:space="preserve">
<g>
	<g>
		<g>
			<path fill="#316CFF" d="M32,0c17.7,0,32,14.3,32,32S49.7,64,32,64S0,49.7,0,32S14.3,0,32,0z"/>
		</g>
	</g>
	<g>
		<g>
			<path fill="#8EB6CE" d="M19.6,48.5L17,18h30l-2.6,30.5c-0.2,2-1.9,3.5-4,3.5H23.6C21.5,52,19.8,50.5,19.6,48.5z"/>
		</g>
	</g>
	<g>
		<g>
			<path fill="#8EB6CE" d="M39,16h-2.9v-4.3c0-0.3-0.2-0.5-0.5-0.5h-7.2c-0.3,0-0.5,0.2-0.5,0.5V16H25v-4.3C25,9.7,26.5,8,28.4,8
				h7.2c1.9,0,3.4,1.7,3.4,3.7V16z"/>
		</g>
	</g>
	<g>
		<g>
			<path fill="#A3D5E8" d="M49,20H15v-2.7c0-1.8,1.5-3.3,3.3-3.3h27.4c1.8,0,3.3,1.5,3.3,3.3V20z"/>
		</g>
	</g>
	<g>
		<g>
			<g>
				<path fill="#6F8BB5" d="M24.9,45L24.9,45c-0.8,0-1.4-0.6-1.5-1.4l-1.3-17c-0.1-0.9,0.6-1.6,1.5-1.6h0c0.8,0,1.4,0.6,1.5,1.4
					l1.3,17C26.4,44.3,25.8,45,24.9,45z"/>
			</g>
		</g>
	</g>
	<g>
		<g>
			<g>
				<path fill="#6F8BB5" d="M32,45L32,45c-0.8,0-1.5-0.7-1.5-1.5v-17c0-0.8,0.7-1.5,1.5-1.5h0c0.8,0,1.5,0.7,1.5,1.5v17
					C33.5,44.3,32.8,45,32,45z"/>
			</g>
		</g>
	</g>
	<g>
		<g>
			<g>
				<path fill="#6F8BB5" d="M39.2,45L39.2,45c-0.9,0-1.6-0.7-1.5-1.6l1.3-17c0.1-0.8,0.7-1.4,1.5-1.4h0c0.9,0,1.6,0.7,1.5,1.6
					l-1.3,17C40.7,44.4,40,45,39.2,45z"/>
			</g>
		</g>
	</g>
</g>
</svg>
